<?xml version="1.0" encoding="utf-8"?>
<!-- Generator: Adobe Illustrator 27.9.1, SVG Export Plug-In . SVG Version: 6.00 Build 0)  -->
<svg version="1.1" id="Layer_1" xmlns="http://www.w3.org/2000/svg" xmlns:xlink="http://www.w3.org/1999/xlink" x="0px" y="0px"
	 viewBox="0 0 360 70" style="enable-background:new 0 0 360 70;" xml:space="preserve">
<style type="text/css">
	.st0{fill:#FFFFFF;}
</style>
<g>
	<path class="st0" d="M138.4,27.7c-9.2-6.4-19.5-8.3-30.4-8c-3.9,0.1-7.9,0.4-11.8,0.6c0.5-0.7,1.1-1.1,1.7-1.4
		c5.1-2.5,10.2-5,15.3-7.6c1.1-0.6,2.3-1.3,3-2.2c2-2.4,0.9-5.2-2.2-5.6c-10-1.1-19.9-2.4-29.9-2.9C72.6,0,61,0.3,49.5,0
		c-3.9-0.1-6.7,1.8-10.2,4c1.1,0.5,1.7,0.8,2.3,1.1c2.8,1.1,5.7,1.8,8.3,3.2c3.4,1.8,6.8,3.7,9.7,6.1c5,4.2,5.4,10,4.4,16
		c-1.3,8.4-2.6,16.9-3.8,25.3c-0.1,0.6,0,1.6,0.4,1.9c1.5,1.3,6.2-0.2,6.6-2.2c1.6-7,3.5-13.9,4.5-21c0.5-3.8,1.8-5.6,5.4-6.8
		c8.6-2.9,17.4-3.2,26.3-3.3c8.8-0.1,16.9,2.2,24.8,5.9c11,5.2,10.3,17.3,5.1,23.8c-5.7,7-13.2,10.9-22.2,11.9
		c-9.5,1-18.9,0-28.3-1.4c-2.3-0.3-4.6-0.8-6.3-3.1c0.9-0.6,1.6-1.2,2.5-1.4c3.1-0.9,6.3-1.7,9.4-2.6c0.7-0.2,1.2-1,1.8-1.5
		c-0.6-0.5-1.1-1.1-1.7-1.4c-0.5-0.2-1.1-0.2-1.7,0c-6.4,1.4-12.4,3.6-17.6,7.6c-1.5,1.1-1.4,2.2,0.1,2.9c2.2,1.1,4.4,2.5,6.8,3
		c13.9,2.7,27.9,2.7,41.8-0.1c9-1.8,17-5.6,22.9-12.9c3.1-3.8,5-8.1,5.2-13C146.2,35.8,143.4,31.2,138.4,27.7z M72.5,25.4
		c-1.2-3.5-0.5-6.8,0-10c0.4-2.5,0.9-5,1.1-7.6c0.2-2.3-1-3.2-3.2-2.5c-2.5,0.8-5.4,1.2-5,5.5c-3.1-2.2-5.8-4.1-8.6-6
		c0-0.2,0.1-0.3,0.1-0.5c3.4-0.2,6.9-0.5,10.3-0.6c12.6-0.2,25.2,0.8,37.6,2.5c0.6,0.1,1.2,0.1,1.6,0.4c0.8,0.7,2,1.5,2.1,2.3
		s-0.9,2.1-1.7,2.5c-4.8,2.2-9.6,4.2-14.5,6.1C85.7,20.1,79.1,22.7,72.5,25.4z"/>
	<path class="st0" d="M334,31.8c0.6-0.1,1.1-0.9,1.7-1.3c-0.6-0.2-1.3-0.6-1.9-0.6c-7.4,0.7-14.9,1.5-22.3,2.2
		c-8.8,0.9-17.5,1.9-26.3,2.8c-4.5,0.5-9,0.9-13.8,1.4c0.2-2.1,0.6-4,0.4-5.8c-0.4-3.8,1.5-5.1,4.7-6.2c14.6-4.7,29.1-9.6,43.6-14.5
		c1.2-0.4,2.4-0.9,3.4-1.6c0.5-0.3,0.8-1.5,0.6-2c-0.2-0.4-1.2-0.6-1.9-0.7c-0.4-0.1-0.8,0.2-1.2,0.4c-18.1,6.3-36.2,12.6-54.3,18.9
		c-2.5,0.9-5.1,1.9-7.5,3.1c-2.6,1.3-2.5,2.9-0.3,4.7c1.6,1.3,3,2.7,4.5,4c-0.1,0.2-0.2,0.4-0.3,0.6c-14.9,1.6-29.9,3.1-45.3,4.8
		c-0.2-5.9-0.4-11.4-0.6-16.9c0-1.2,0.3-1.9,1.7-2.2c8.9-1.7,17.8-3.7,26.7-5.2c4.9-0.9,9.9-1.1,14.8-1.8c0.8-0.1,1.4-1.1,2.1-1.7
		c-0.6-0.5-1.1-1.4-1.7-1.4c-2.2-0.2-4.4-0.5-6.6-0.2c-7,1.1-14.1,2.2-21,3.8c-10.2,2.4-20.3,5.1-30.5,8c-2.7,0.7-5.1,2.3-7.6,3.5
		c0,0.3,0,0.6,0,0.9c2.2,1.4,4.3,2.8,6.6,4.1c3.7,2.1,6.7,5,8.7,8.8c0.5,1.1,0.9,1.9,0.1,3.1c-0.4,0.6,0.1,2.5,0.3,2.5
		c2.1,0.1,1.9,1.7,2.3,3c0.5,2,0.9,4,1.5,6c0.1,0.5,0.5,1.4,0.8,1.4c1.7,0.1,3.7,0.5,5.1-0.2c1.4-0.6,1.1-2.5,0.6-4
		c-0.8-2.2-1.3-4.4-2.1-6.9c15.4-2,30.4-3.9,45.5-5.8c0.1,0.6,0.1,1,0.1,1.4c0.3,3.9,0.6,7.8,0.9,11.7c0.1,1.5,0.5,2.8,2.2,3.3
		c3.4,1,5.3-0.2,5.8-3.7c0.1-0.8,0.2-1.6,0.2-2.3c-0.4-3.7-0.8-7.4-1.3-11.3c0.5-0.1,1.4-0.3,2.3-0.4c5.2-0.7,10.4-1.3,15.6-2
		c9.4-1.2,18.9-2.4,28.3-3.6C323.8,33.2,328.9,32.6,334,31.8z M210.5,32.1c-1.9-1.2-3.9-2.4-5.9-3.7c0.1-0.3,0.1-0.5,0.2-0.8
		c1.4-0.5,2.9-1.1,4.4-1.3c0.5-0.1,1.5,0.6,1.5,1.1C210.8,28.9,210.6,30.5,210.5,32.1z"/>
	<path class="st0" d="M196.4,40.1c-3.5,0.3-6.9,0.7-10.5,1.1c-0.1-1.2-0.2-2.3-0.3-3.3c-0.3-5.2-0.6-10.4-0.9-15.6
		c-0.2-2.5-1.5-3.5-3.9-2.9c-2.9,0.7-5.2,2.1-6.4,5c-0.5,1.2-1.3,2.2-2.1,3.2c-3.8,4.3-7.7,8.4-11.3,12.8c-1.9,2.3-4,3.4-7.1,3.5
		c-1.8,0.1-3.6,1.6-5.4,2.6c-0.5,0.3-0.6,1.1-1.1,2.1c2.9-0.2,5.4-0.4,7.8-0.6c-2.2,2.1-4.6,3.7-6.8,5.6c-0.6,0.5-1.1,1.7-0.9,2.3
		c0.2,0.5,1.4,1,2.1,1.1c3.6,0.1,6.7-0.9,8.6-4.4c0.5-0.9,1.4-1.6,1.9-2.6c1.2-1.9,2.6-3,5.1-3.1c4-0.1,8-0.7,12.1-1
		c0.1,0.8,0.3,1.4,0.3,1.9c-0.1,3.1,1.5,6.2-0.1,9.4c-0.4,0.9,0.2,2.1,1.7,2.1c1.6,0,3.1-0.1,4.7-0.1c2.7,0,3.4-1,3.1-3.7
		c-0.4-3.6-0.8-7.1-1.2-10.8c2.4-0.3,4.6-0.5,6.6-0.9c3.8-0.7,7.5-1.4,11.3-2.2c0.4-0.1,0.7-0.9,1.1-1.3c-0.5-0.3-1-0.8-1.5-0.8
		C201,39.6,198.7,39.9,196.4,40.1z M165.4,43.2c3.7-4.7,7.2-9.1,11.2-14c0.3,4.6,0.6,8.6,0.9,12.9C173.5,42.5,169.7,42.8,165.4,43.2
		z"/>
	<path class="st0" d="M357.1,39.7c-4-3.2-8.7-3.4-13.4-2.6c-8.3,1.4-16,4.3-23.3,8.7c-0.8-2.2-2.4-2.8-4.5-2.5
		c-5.2,0.5-9.6,2.8-13.8,5.8c-0.6,0.4-1,1.4-1.1,2.2c-0.3,2.1,0.7,4.1,3.3,4.9c3.1,1,6.4,1.9,9.7,2.1c10.1,0.5,20.1-0.6,29.8-3.4
		c4.5-1.3,9-3.1,13.1-5.5C361.1,46.8,361,42.8,357.1,39.7z M311.2,53c-0.5-0.7-1.8-1.5-2.1-2.7c-0.5-1.8,1.3-2.4,2.6-3
		c1.9-1,3.7-0.7,5.5,0.5C315.4,49.4,313.5,51.1,311.2,53z M349.3,48c-10.2,4.5-20.9,6.1-32,6.3c-0.8,0-1.6-0.1-2.9-0.2
		c0.9-0.8,1.4-1.3,2-1.6c7.7-4.9,15.8-9,24.7-11.2c2.9-0.7,6-1,8.7,0.8c1.1,0.7,2.2,2.2,2.3,3.4C352.1,46.3,350.4,47.5,349.3,48z"/>
	<path class="st0" d="M16.8,51c0.3-2,0.6-3.5,0.8-5.1c1.3-7.2,2.7-14.4,4-21.6c0.1-0.6-0.3-1.8-0.8-2c-2.2-0.8-6.1,1.9-6.4,4.2
		c-0.9,6.5-1.8,13.1-3,19.6c-0.6,3.6-1.8,7.1-2.8,10.9c0.8-0.1,1.8,0.1,2.6-0.2c2.3-0.9,4.8-1.5,6.8-2.9c8-5.7,16.7-10.2,25.8-13.9
		c0.7-0.3,1.2-0.7,1.9-1c-0.1-0.3-0.2-0.5-0.4-0.8C35.2,40.4,26.1,45.3,16.8,51z"/>
	<path class="st0" d="M9.7,21.1c-1.6-0.1-4.9,2.6-5.2,4.2C3,34.1,1.5,42.9,0,51.7c0.4,2.7,1.3,3.5,3.8,2.6c1.7-0.6,2.9-1.8,3-3.8
		c0.1-1.3,0.1-2.6,0.3-3.8c1.3-7.7,2.7-15.4,4.1-23C11.5,22.2,11.3,21.2,9.7,21.1z"/>
</g>
</svg>
